<?xml version="1.0" encoding="utf-8"?>
<!-- Generator: Adobe Illustrator 15.1.0, SVG Export Plug-In . SVG Version: 6.00 Build 0)  -->
<!DOCTYPE svg PUBLIC "-//W3C//DTD SVG 1.1//EN" "http://www.w3.org/Graphics/SVG/1.1/DTD/svg11.dtd">
<svg version="1.1" id="Calque_1" xmlns="http://www.w3.org/2000/svg" xmlns:xlink="http://www.w3.org/1999/xlink" x="0px" y="0px"
	 width="343px" height="128.31px" viewBox="0 0 343 128.31" enable-background="new 0 0 343 128.31" xml:space="preserve">
<g id="Panier">
</g>
<g>
	<g>
		<g>
			<g>
				<path fill="#95807A" d="M12.691,64.695c-0.177,0.047-0.325,0.131-0.325,0.282c0,0.19,0.15,0.245,0.385,0.26
					c6.869,0.425,16.845-0.034,26.223-1.405c31.993-4.682,24.913-14.467,51.085-20.129c4.925-1.063,16.321-2.021,16.758-2.072
					c0.437-0.053,0.698-0.194,0.698-0.491c0-0.247-0.181-0.389-0.706-0.563c-0.699-0.232-4.899-1.394-4.899-1.394
					c-0.644-2.089-3.658-3.616-6.785-3.206c-7.666,1.006-17.471,8.551-27.452,6.803c-3.592-6.91-12.126-13.012-22.288-14.412
					c-11.563-1.594-16.912-2.752-21.453-4.078c-4.436-1.302-6.864-2.605-8.063-3.214c-0.533-0.271-0.77-0.386-0.957-0.319
					c-0.449,0.156-0.275,0.924,0.089,1.886c4.412,11.793,19.959,23.198,21.625,29.442c0.347,1.303,0.27,1.922-2.263,3.492
					C28.488,59.213,21.107,62.425,12.691,64.695z"/>
			</g>
			<path fill="#FFFFFF" d="M53.726,98.992c-2.667,0-4,0.638-5.682,3.016l-3.362,4.75H34.128l29.223-40.582h9.566l29.163,40.582
				H91.063L67.814,73.943L53.668,94.063c2.028-1.913,4.059-2.318,7.189-2.318h15.363l-4.695,7.248H53.726z"/>
			<path fill="#FFFFFF" d="M145.334,80.844c-4.408-4.464-11.075-7.827-19.83-7.827c-11.131,0-18.901,5.104-18.901,13.276
				c0,8.697,7.771,13.51,19.075,13.51c8.581,0,15.479-3.421,19.656-7.709l6.608,5.68c-5.854,5.682-14.669,9.799-26.438,9.799
				c-17.451,0-29.048-8.696-29.048-21.279c0-12,11.597-20.986,29.222-20.986c11.596,0,20.643,4.406,26.265,9.856L145.334,80.844z"/>
			<path fill="#FFFFFF" d="M201.921,80.844c-4.407-4.464-11.075-7.827-19.83-7.827c-11.131,0-18.899,5.104-18.899,13.276
				c0,8.697,7.769,13.51,19.073,13.51c8.581,0,15.479-3.421,19.656-7.709l6.609,5.68c-5.856,5.682-14.669,9.799-26.439,9.799
				c-17.451,0-29.046-8.696-29.046-21.279c0-12,11.595-20.986,29.22-20.986c11.597,0,20.643,4.406,26.266,9.856L201.921,80.844z"/>
			<path fill="#FFFFFF" d="M269.873,86.121c0,12.986-12.698,21.451-30.614,21.451c-16.873,0-29.513-8.523-29.513-21.279
				c0-12.579,12.698-20.986,29.513-20.986C257.175,65.307,269.873,73.714,269.873,86.121z M259.667,86.121
				c0-8.291-9.624-13.104-20.408-13.104c-10.785,0-19.423,4.813-19.423,13.276c0,8.988,8.638,13.568,19.365,13.568
				C250.102,99.861,259.667,95.281,259.667,86.121z"/>
			<path fill="#FFFFFF" d="M318.169,95.281l12.465,11.477h-12.87L306.46,96.555c-2.957-2.664-4.931-3.361-9.511-3.361h-11.134
				l4.7-7.248h13.856c4.695,0,8.114-2.608,8.114-6.377c0-4.059-3.419-6.145-8.057-6.145h-21.858v33.334h-9.047V66.176h33.86
				c10.032,0,15.017,5.334,15.017,11.77c0,6.435-5.389,10.668-12.349,11.943C313.3,90.411,315.964,93.252,318.169,95.281z"/>
		</g>
	</g>
</g>
</svg>
